<?xml version="1.0" encoding="utf-8"?>
<!-- Generator: Adobe Illustrator 24.3.0, SVG Export Plug-In . SVG Version: 6.00 Build 0)  -->
<svg version="1.1" id="_x33_4" xmlns="http://www.w3.org/2000/svg" xmlns:xlink="http://www.w3.org/1999/xlink" x="0px" y="0px"
	 viewBox="0 0 2300 1800" style="enable-background:new 0 0 2300 1800;" xml:space="preserve">
<style type="text/css">
	.st0{opacity:0.3;}
	.st1{opacity:0.8;fill:url(#SVGID_1_);}
	.st2{opacity:0.6;fill:url(#SVGID_2_);}
	.st3{opacity:0.6;fill:url(#SVGID_3_);}
	.st4{opacity:0.5;fill:url(#SVGID_4_);}
	.st5{opacity:0.5;fill:url(#SVGID_5_);}
	.st6{opacity:0.5;}
	.st7{opacity:0.5;fill:url(#SVGID_6_);}
	.st8{fill:url(#SVGID_7_);}
	.st9{fill:url(#SVGID_8_);}
	.st10{fill:url(#SVGID_9_);}
	.st11{fill:url(#SVGID_10_);}
	.st12{fill:url(#SVGID_11_);}
	.st13{fill:url(#SVGID_12_);}
	.st14{opacity:0.5;fill:url(#SVGID_13_);}
	.st15{fill:url(#SVGID_14_);}
	.st16{opacity:0.5;fill:url(#SVGID_15_);}
	.st17{fill:url(#SVGID_16_);}
	.st18{fill:url(#SVGID_17_);}
	.st19{fill:url(#SVGID_18_);}
	.st20{opacity:0.5;fill:url(#SVGID_19_);}
	.st21{fill:url(#SVGID_20_);}
	.st22{fill:url(#SVGID_21_);}
	.st23{fill:url(#SVGID_22_);}
	.st24{fill:url(#SVGID_23_);}
	.st25{fill:url(#SVGID_24_);}
	.st26{fill:url(#SVGID_25_);}
	.st27{fill:url(#SVGID_26_);}
	.st28{fill:url(#SVGID_27_);}
	.st29{fill:url(#SVGID_28_);}
	.st30{fill:url(#SVGID_29_);}
	.st31{opacity:0.5;fill:url(#SVGID_30_);}
	.st32{fill:url(#SVGID_31_);}
	.st33{fill:url(#SVGID_32_);}
	.st34{fill:url(#SVGID_33_);}
	.st35{fill:url(#SVGID_34_);}
	.st36{opacity:0.5;fill:url(#SVGID_35_);}
	.st37{opacity:0.5;fill:url(#SVGID_36_);}
	.st38{opacity:0.5;fill:url(#SVGID_37_);}
	.st39{opacity:0.5;fill:url(#SVGID_38_);}
	.st40{fill:url(#SVGID_39_);}
	.st41{fill:url(#SVGID_40_);}
	.st42{fill:url(#SVGID_41_);}
	.st43{opacity:0.5;fill:url(#SVGID_42_);}
	.st44{opacity:0.8;fill:#F9CDCD;}
	.st45{opacity:0.8;fill:url(#SVGID_43_);}
	.st46{opacity:0.8;}
	.st47{opacity:0.8;fill:url(#SVGID_44_);}
	.st48{opacity:0.8;fill:url(#SVGID_45_);}
	.st49{fill:url(#SVGID_46_);}
	.st50{fill:url(#SVGID_47_);}
	.st51{opacity:0.2;}
	.st52{fill:url(#SVGID_48_);}
	.st53{fill:url(#SVGID_49_);}
	.st54{fill:url(#SVGID_50_);}
	.st55{fill:url(#SVGID_51_);}
	.st56{fill:url(#SVGID_52_);}
	.st57{fill:url(#SVGID_53_);}
	.st58{opacity:0.5;fill:url(#SVGID_54_);}
	.st59{fill:url(#SVGID_55_);}
	.st60{fill:url(#SVGID_56_);}
	.st61{fill:url(#SVGID_57_);}
	.st62{fill:url(#SVGID_58_);}
	.st63{fill:url(#SVGID_59_);}
	.st64{fill:url(#SVGID_60_);}
	.st65{fill:url(#SVGID_61_);}
	.st66{fill:url(#SVGID_62_);}
	.st67{fill:url(#SVGID_63_);}
	.st68{fill:url(#SVGID_64_);}
	.st69{opacity:0.3;fill:url(#SVGID_65_);}
	.st70{fill:url(#SVGID_66_);}
</style>
<g class="st0">
	<linearGradient id="SVGID_1_" gradientUnits="userSpaceOnUse" x1="345.2664" y1="865.4106" x2="1927.6089" y2="865.4106">
		<stop  offset="0" style="stop-color:#1B1464"/>
		<stop  offset="1" style="stop-color:#7F47DD"/>
	</linearGradient>
	<path class="st1" d="M1927.6,865.4c-17.7,1030.9-1564.8,1030.7-1582.3,0C362.9-165.5,1910.1-165.3,1927.6,865.4z"/>
	<linearGradient id="SVGID_2_" gradientUnits="userSpaceOnUse" x1="53.8309" y1="1188.901" x2="980.9483" y2="1188.901">
		<stop  offset="0" style="stop-color:#1B1464"/>
		<stop  offset="1" style="stop-color:#7F47DD"/>
	</linearGradient>
	<path class="st2" d="M980.9,1188.9c-10.3,604-916.9,603.9-927.1,0C64.2,584.9,970.7,585,980.9,1188.9z"/>
	<linearGradient id="SVGID_3_" gradientUnits="userSpaceOnUse" x1="1291.6229" y1="1188.901" x2="2218.7405" y2="1188.901">
		<stop  offset="0" style="stop-color:#1B1464"/>
		<stop  offset="1" style="stop-color:#7F47DD"/>
	</linearGradient>
	<path class="st3" d="M1291.6,1188.9c10.3,604,916.9,603.9,927.1,0C2208.4,584.9,1301.9,585,1291.6,1188.9z"/>
	<linearGradient id="SVGID_4_" gradientUnits="userSpaceOnUse" x1="1583.54" y1="721.0424" x2="2218.7405" y2="721.0424">
		<stop  offset="0" style="stop-color:#1B1464"/>
		<stop  offset="1" style="stop-color:#7F47DD"/>
	</linearGradient>
	<path class="st4" d="M1583.5,721c7.1,413.8,628.2,413.8,635.2,0C2211.7,307.2,1590.6,307.3,1583.5,721z"/>
	<linearGradient id="SVGID_5_" gradientUnits="userSpaceOnUse" x1="53.8307" y1="721.0424" x2="689.0312" y2="721.0424">
		<stop  offset="0" style="stop-color:#1B1464"/>
		<stop  offset="1" style="stop-color:#7F47DD"/>
	</linearGradient>
	<path class="st5" d="M689,721c-7.1,413.8-628.2,413.8-635.2,0C60.9,307.2,682,307.3,689,721z"/>
</g>
<g class="st6">
	<linearGradient id="SVGID_6_" gradientUnits="userSpaceOnUse" x1="275.1348" y1="1652.1588" x2="1997.4363" y2="1652.1588">
		<stop  offset="0" style="stop-color:#1B1464"/>
		<stop  offset="1" style="stop-color:#7F47DD"/>
	</linearGradient>
	<path class="st7" d="M1996.7,1652.2c43.2,85.8-1764.1,85.8-1720.8,0C232.7,1566.3,2040,1566.3,1996.7,1652.2z"/>
	<g class="st6">
		<linearGradient id="SVGID_7_" gradientUnits="userSpaceOnUse" x1="406.0359" y1="1652.1604" x2="1866.5355" y2="1652.1604">
			<stop  offset="0" style="stop-color:#1B1464"/>
			<stop  offset="1" style="stop-color:#7F47DD"/>
		</linearGradient>
		<path class="st8" d="M1865.8,1652.2c38,39-1497.2,39-1459.1,0C368.7,1613.1,1904,1613.1,1865.8,1652.2z"/>
	</g>
</g>
<g>
	<linearGradient id="SVGID_8_" gradientUnits="userSpaceOnUse" x1="917.1829" y1="732.3568" x2="870.2739" y2="995.6865">
		<stop  offset="0" style="stop-color:#7F47DD"/>
		<stop  offset="1" style="stop-color:#1B1464"/>
	</linearGradient>
	<path class="st9" d="M943.3,864.7c-12.7-30.3-47.5-78.7-65-101c-4.9-1.6-9.5,0-14.6,7.8c-24.3,45.3,16.6,89.1,44.2,121.4
		C912.2,884.2,921.9,873.1,943.3,864.7z"/>
	<linearGradient id="SVGID_9_" gradientUnits="userSpaceOnUse" x1="783.5162" y1="854.039" x2="1106.1852" y2="939.0087">
		<stop  offset="0" style="stop-color:#7F47DD"/>
		<stop  offset="1" style="stop-color:#1B1464"/>
	</linearGradient>
	<path class="st10" d="M1064.4,932.8c-0.3-0.5-0.5-0.8-0.8-1.3c-35.4-13.4-71.9-23.9-106.7-39c-1.8-0.7-4-1.1-5.3-2.7
		c-1.6-2.1-10-24.4-8.4-25c-21.4,8.4-31.1,19.5-35.4,28.2c15.6,21.4,25.5,33.3,52.9,38.9c33.5,10.1,67.9,16.7,102.7,20.3
		C1062.9,944.3,1063.9,934.8,1064.4,932.8z"/>
</g>
<g>
	
		<linearGradient id="SVGID_10_" gradientUnits="userSpaceOnUse" x1="-1890.7946" y1="1275.7402" x2="-2038.9845" y2="1243.2794" gradientTransform="matrix(0.9996 2.810000e-02 -2.810000e-02 0.9996 3221.3684 -303.0354)">
		<stop  offset="0" style="stop-color:#F0877E"/>
		<stop  offset="1" style="stop-color:#FABEB2"/>
	</linearGradient>
	<path class="st11" d="M1205.4,928.2c-5.5,0.2-13.1-2.4-18.1-1.7c-5.5,0.1-23.3-9-30.7-14.6c-7.3-5.5-0.1-6.8,6.9-3.1
		c3,1.6,6.2,2.7,8.8,3.5c-8.1-2.8-43.1-31.6-15.1-19c11.3,7.3,13,10.1,19.6,11c-6.8-3.4-20.2-15.9-25.7-22.9c-6-7.8,1.8-7,8.1-1.3
		c10.5,9,11.4,11.8,18.5,13.7c-5.2-5.3-13.7-21.9-16.4-30.4c-3-9.4,4.1-6,8.1,1.5c3.9,7.5,8.5,15.8,8.5,15.8l12,10
		c0,0,7.6,4.5,8.4-5.2c0.8-9.8-1.5-16.3,1.5-20.3c3-4,3.8-4.1,5.1-2.3c-2.2,13.7,2.9,10.9,7.1,24.1c2.9,8.9,12.9,11,21,11
		c-0.6,0.5-14.6,12.9-11.2,34.6c-5.7-1.4-11.2-3-16.8-4.5C1205.2,928.1,1205.3,928.1,1205.4,928.2z"/>
	
		<linearGradient id="SVGID_11_" gradientUnits="userSpaceOnUse" x1="4665.9199" y1="915.1282" x2="4641.9985" y2="643.6215" gradientTransform="matrix(-0.9972 7.450000e-02 7.450000e-02 0.9972 5917.7656 -231.3987)">
		<stop  offset="0" style="stop-color:#981B24"/>
		<stop  offset="1" style="stop-color:#C12D43"/>
	</linearGradient>
	<path class="st12" d="M1438.6,780.3c0,0,32.4,33.1,14.6,105.6c-9.4,34.6-40.9,58.4-69.1,78c-20.6,13.5-42.5,7.5-64.2,0.3
		c-36.1-12-73.2-19.8-108.4-34.3c0,0,10.3-14.1,10.2-33.2c42.4,4.8,125.1,13.4,126.7,13.6C1381,897.9,1438.6,780.3,1438.6,780.3z"/>
</g>
<linearGradient id="SVGID_12_" gradientUnits="userSpaceOnUse" x1="778.8867" y1="1593.1611" x2="721.6572" y2="1634.9386">
	<stop  offset="0" style="stop-color:#006FD0"/>
	<stop  offset="1" style="stop-color:#333333"/>
</linearGradient>
<path class="st13" d="M751.1,1609.4c17.9,24.7,15,43.8-26.4,42.8c-6.7,0-25.4-12.7-26-20c-0.6-7.3,18-29.3,18-29.3L751.1,1609.4z"/>
<linearGradient id="SVGID_13_" gradientUnits="userSpaceOnUse" x1="4646.8335" y1="996.3851" x2="4621.3091" y2="706.6884" gradientTransform="matrix(-0.9972 7.450000e-02 7.450000e-02 0.9972 5917.7656 -231.3987)">
	<stop  offset="0" style="stop-color:#981B24"/>
	<stop  offset="1" style="stop-color:#C12D43"/>
</linearGradient>
<path class="st14" d="M1412.5,1012.9c15.1-29.3-122.9-49.8-134.3-49.4l0.4-5.6c0.6-0.2,62.2-26.6,62.7-26.8
	c18.7,2.9,55.3,7.3,69.8,9.4c2.5,0.4,4.5-2,3.8-4.3c-2.4-8.5-0.9-12.6-8-13.4c-10.3-1.2-21.8-1.4-33.8-1.8l0,0l-89.6,4.3l-2.2-28.7
	c103.3,15.9,106.8-65.7,111.1-51.1c4.3,14.6-3.1,21.1-3.1,21.1l-12.3,41.1c36-3.9,37.4-57.1,40.4-64.3c5.9-8.4,7.3,58,31.8,46.3
	c-5.3,49.6-22.6,100.2-37.1,147.6c-50.3,16.7-148.1,7.4-141.1,5C1362.7,1045.9,1399.2,1030.6,1412.5,1012.9z"/>
<linearGradient id="SVGID_14_" gradientUnits="userSpaceOnUse" x1="1095.7009" y1="721.1161" x2="1044.347" y2="1215.7352">
	<stop  offset="0" style="stop-color:#7F47DD"/>
	<stop  offset="1" style="stop-color:#1B1464"/>
</linearGradient>
<path class="st15" d="M1247.8,753l-15.7,310.2c-0.3,6.6-6,11.6-12.6,11.3l-301.7-15c-6.6-0.3-11.7-5.9-11.4-12.5l15.7-310.2
	c0.3-6.6,6-11.6,12.6-11.3l127.4,6.3c37.7,1.6,135.4,7,174.3,8.7C1243.1,740.8,1248.2,746.4,1247.8,753z"/>
<linearGradient id="SVGID_15_" gradientUnits="userSpaceOnUse" x1="1095.7019" y1="721.3848" x2="1044.3868" y2="1215.63">
	<stop  offset="0" style="stop-color:#FFCEA2"/>
	<stop  offset="1" style="stop-color:#A23F00"/>
</linearGradient>
<path class="st16" d="M1232.3,1060.8c0.5,7.3-5,14-12.7,13.6c0,0-301.7-15-301.7-15c-6.6-0.3-11.8-5.9-11.4-12.5l15.7-310.2
	c0.3-6.9,6.6-12.1,13.5-11.2l-15.6,307.9c-0.3,6.6,4.8,12.1,11.4,12.5L1232.3,1060.8z"/>
<g>
	<linearGradient id="SVGID_16_" gradientUnits="userSpaceOnUse" x1="816.6108" y1="687.4075" x2="819.3828" y2="741.1843">
		<stop  offset="0" style="stop-color:#F0877E"/>
		<stop  offset="1" style="stop-color:#FABEB2"/>
	</linearGradient>
	<path class="st17" d="M836.4,683.7c0,0-6.4,58.4,12,65.7c0,0-28.6,30.6-58-14.2c0,0,5.9-30.7,0-54.8L836.4,683.7z"/>
	
		<linearGradient id="SVGID_17_" gradientUnits="userSpaceOnUse" x1="596.436" y1="897.1889" x2="609.8881" y2="1022.2921" gradientTransform="matrix(0.9559 -1.910000e-02 4.660000e-02 0.8589 190.8161 -179.5948)">
		<stop  offset="0" style="stop-color:#F0877E"/>
		<stop  offset="1" style="stop-color:#FABEB2"/>
	</linearGradient>
	<path class="st18" d="M866.7,617.2c-15.3,31.6,13,74-35.8,101.8c-12.9-3-67.7-13.1-65.9-60.9c-1.5-8.3-13.5-13.1-7.5-26.3
		s11.8-4.2,11.8-4.2s1.9-10.3,4.2-19C775.8,600,866.7,617.2,866.7,617.2z"/>
</g>
<linearGradient id="SVGID_18_" gradientUnits="userSpaceOnUse" x1="892.0925" y1="1634.3871" x2="853.3192" y2="1089.7139">
	<stop  offset="0" style="stop-color:#7F47DD"/>
	<stop  offset="1" style="stop-color:#1B1464"/>
</linearGradient>
<path class="st19" d="M911.7,1270.4c1.3-152.1-7.3-204.6-21.9-259.7l-51.3-14.8c-12.2,15.5-27.4,37.3-35.4,71.5
	c-11.2,57.9,32.3,203.1,41.3,250.1c-9.8,72.6-6.2,150.9,9.2,223.2c2.8,16.2,6.4,30.1,4.4,46.3c12.8,6.7,39.3,1.9,38.8-1.1
	C887.4,1481.3,915.4,1375.8,911.7,1270.4z"/>
<linearGradient id="SVGID_19_" gradientUnits="userSpaceOnUse" x1="887.283" y1="1618.7656" x2="849.4733" y2="1087.629">
	<stop  offset="0" style="stop-color:#7F47DD"/>
	<stop  offset="1" style="stop-color:#1B1464"/>
</linearGradient>
<path class="st20" d="M800.5,1094.2c1.1,46.5,35.6,189.3,44,223.3c-8-35.4-15.3-179.1,10.6-244.8c25.8-65.7,38.3-40.5,38.3-40.5
	l1.6-2.5c-3-13-5.1-19-5.1-19l-51.3-14.8c-3.5,0-33.3,67.8-35.4,71.5C801.3,1076,800.2,1085,800.5,1094.2z"/>
<linearGradient id="SVGID_20_" gradientUnits="userSpaceOnUse" x1="808.822" y1="1648.079" x2="769.6189" y2="1097.3676">
	<stop  offset="0" style="stop-color:#7F47DD"/>
	<stop  offset="1" style="stop-color:#1B1464"/>
</linearGradient>
<path class="st21" d="M753.9,1013.3c0,0-38.3,59.4-31.6,205.9c6.7,167.9,1.5,321-5.6,383.7c0,0,14.5,14.7,34.4,6.5
	c6.6-40,20.2-80,41.7-185c15.3-74.4,32.9-308.1,55.8-401.4C871.7,929.8,753.9,1013.3,753.9,1013.3z"/>
<linearGradient id="SVGID_21_" gradientUnits="userSpaceOnUse" x1="835.6799" y1="737.1364" x2="776.2492" y2="1070.7582">
	<stop  offset="0" style="stop-color:#7F47DD"/>
	<stop  offset="1" style="stop-color:#1B1464"/>
</linearGradient>
<path class="st22" d="M894.4,898.3c-5.1,35.7-9.4,79.2-4.6,112.5c-1.1,0.6-44.6,24.5-112.5,9.2c-7.5-1.7-15.3-3.9-23.4-6.6
	c-17.7-74.6-42.7-174-26-247.5c0,0,41.5-31,62.6-30.6c0,0,11.5,17.9,38.8,18.9c15.7,0,10.2-16.4,9.3-18.8
	c9.2,15.4,31.3,17,41.8,30.6C896.4,809.8,905.2,812.2,894.4,898.3z"/>
<linearGradient id="SVGID_22_" gradientUnits="userSpaceOnUse" x1="895.5194" y1="747.2832" x2="835.8943" y2="1081.9961">
	<stop  offset="0" style="stop-color:#E79700"/>
	<stop  offset="1" style="stop-color:#E74700"/>
</linearGradient>
<path class="st23" d="M874.4,872.9c-0.3,0.1-1.2,0.3-2.6,0.7C872.8,873.4,873.7,873.1,874.4,872.9z"/>
<linearGradient id="SVGID_23_" gradientUnits="userSpaceOnUse" x1="808.3323" y1="716.7441" x2="804.2823" y2="766.6946">
	<stop  offset="0" style="stop-color:#7F47DD"/>
	<stop  offset="1" style="stop-color:#1B1464"/>
</linearGradient>
<path class="st24" d="M790.9,732.6c0,0-6.7,0.1-8.1,3.6c-1.4,3.4,14.9,38.8,22,42.1c7.1,3.3,24.5-24.1,24.5-24.1
	S797.1,746.8,790.9,732.6z"/>
<linearGradient id="SVGID_24_" gradientUnits="userSpaceOnUse" x1="841.0862" y1="719.3382" x2="837.0293" y2="769.3729">
	<stop  offset="0" style="stop-color:#7F47DD"/>
	<stop  offset="1" style="stop-color:#1B1464"/>
</linearGradient>
<path class="st25" d="M838.8,735.6c14.8,6.8,7.6,66.4-9.4,18.5C829.3,754.1,842,752.5,838.8,735.6z"/>
<g>
	<linearGradient id="SVGID_25_" gradientUnits="userSpaceOnUse" x1="604.0673" y1="909.3715" x2="1013.3311" y2="1017.1445">
		<stop  offset="0" style="stop-color:#F0877E"/>
		<stop  offset="1" style="stop-color:#FABEB2"/>
	</linearGradient>
	<path class="st26" d="M965.3,1006.3c0,0,9.7,4.2,13.5,6.7c0.9,3.5,50.1,5.5,24.3-2c-13.4-1.6-20.8-6.7-31.3-10.4L965.3,1006.3z"/>
	<linearGradient id="SVGID_26_" gradientUnits="userSpaceOnUse" x1="605.6998" y1="901.5073" x2="1015.4148" y2="1009.3992">
		<stop  offset="0" style="stop-color:#F0877E"/>
		<stop  offset="1" style="stop-color:#FABEB2"/>
	</linearGradient>
	<path class="st27" d="M973.4,1003.2c0,0,10.9,3.2,15.3,5.3c1.5,3.7,54.4-1.1,25.7-5.5c-7,0.3-14.8,0.5-14.8,0.5l-20.1-7.3
		L973.4,1003.2z"/>
	<linearGradient id="SVGID_27_" gradientUnits="userSpaceOnUse" x1="608.1417" y1="892.3021" x2="1017.8398" y2="1000.1895">
		<stop  offset="0" style="stop-color:#F0877E"/>
		<stop  offset="1" style="stop-color:#FABEB2"/>
	</linearGradient>
	<path class="st28" d="M978.2,998.6c0,0,11.2,1.7,15.9,3.2c1.9,3.4,53.7-8.4,24.7-8.9c-6.9,1.3-14.6,2.5-14.6,2.5l-20.9-4.5
		L978.2,998.6z"/>
	<linearGradient id="SVGID_28_" gradientUnits="userSpaceOnUse" x1="611.309" y1="882.9988" x2="1020.2891" y2="990.6972">
		<stop  offset="0" style="stop-color:#F0877E"/>
		<stop  offset="1" style="stop-color:#FABEB2"/>
	</linearGradient>
	<path class="st29" d="M982.3,997c0,0,11.1-2.2,16-2.4c3,2.5,47.5-26.2,20.1-16.8c-6.1,3.6-12.9,7.3-12.9,7.3l-21.2,2.9L982.3,997z"
		/>
	<linearGradient id="SVGID_29_" gradientUnits="userSpaceOnUse" x1="606.0001" y1="885.3346" x2="1019.673" y2="994.2687">
		<stop  offset="0" style="stop-color:#F0877E"/>
		<stop  offset="1" style="stop-color:#FABEB2"/>
	</linearGradient>
	<path class="st30" d="M992.7,986.9c-12.9-0.4,6.5-19.1,4.4-22c-0.3-4-0.9-4.5-2.6-3.9c-1.7,0.7-1.1,6.7-6.9,8.3
		c-5.8,1.6-9.2,7.8-15.4,8c-15.8,9.4-14.5,47.6,16.6,23.2L992.7,986.9z"/>
</g>
<linearGradient id="SVGID_30_" gradientUnits="userSpaceOnUse" x1="843.9653" y1="738.3406" x2="784.3472" y2="1073.0148">
	<stop  offset="0" style="stop-color:#E79700"/>
	<stop  offset="1" style="stop-color:#E74700"/>
</linearGradient>
<path class="st31" d="M889.8,1010.7c0.9,5.1-82.3,26.4-135.9,2.6c-11-46.2-25.2-98.8-27.2-147c0,0,10.1,5.5,18-6.6
	c7.9-12.2,25.4-26.9,21.6-19.2c-2.7,5.5-4.1,24.7,8.3,37.3l11.1-46.5c29.8,45.7,31.1,68.3,88.8,57.1c-12.9,8.7-28.7,12-45.1,13.1
	c2.8,28.2,44.1,45.4,59.4,50.8c-1.2,18.7-1.4,36-0.2,48.9c-73.7-23.9-91.1-10.1-138.5-79.2C739.8,1002.4,761.6,1030.2,889.8,1010.7z
	"/>
<linearGradient id="SVGID_31_" gradientUnits="userSpaceOnUse" x1="794.3085" y1="651.0504" x2="839.394" y2="535.0305">
	<stop  offset="0" style="stop-color:#5C1A00"/>
	<stop  offset="1" style="stop-color:#B94300"/>
</linearGradient>
<path class="st32" d="M866.7,615.1c-5.7,7.5-16.9,19-52.8,18.9c18.3-19.5-33.4-1.9-33.1,14c-5.8,20.5-13.6-8.1-11.4-20.3
	c0,0-5.8-9-11.8,4.2c-6,13.2,6,18,7.5,26.3c2.3,11.7,2.1,20.5,4.2,24.4c0,0-29.3-28.2-15.7-76.2
	C767.2,558.2,846.9,580.4,866.7,615.1z"/>
<linearGradient id="SVGID_32_" gradientUnits="userSpaceOnUse" x1="862.7565" y1="632.2296" x2="863.8588" y2="607.9811">
	<stop  offset="0" style="stop-color:#5C1A00"/>
	<stop  offset="1" style="stop-color:#B94300"/>
</linearGradient>
<path class="st33" d="M855.5,625.1c3.4,9.1,17.1,5.5,15-6.4C869.3,613.3,855.5,625.1,855.5,625.1z"/>
<linearGradient id="SVGID_33_" gradientUnits="userSpaceOnUse" x1="1028.1906" y1="302.5637" x2="927.1959" y2="388.2288" gradientTransform="matrix(0.9821 -0.1886 0.1886 0.9821 -214.4584 462.4031)">
	<stop  offset="0" style="stop-color:#7F47DD"/>
	<stop  offset="1" style="stop-color:#1B1464"/>
</linearGradient>
<path class="st34" d="M749.3,595.4c6.2-37.4,42.4-66.2,80.6-56.5c20.3,4.6,40.9,21.2,42,43.1c-0.2,3.5,0.7,7.5,4.5,8.6
	c26.3,10.7,55.1,13.2,9.9,28.5c-48.4,16.3-62.2-3.7-102.5-0.6C763,622.5,742.2,625.2,749.3,595.4z"/>
<linearGradient id="SVGID_34_" gradientUnits="userSpaceOnUse" x1="752.3356" y1="721.7834" x2="688.6245" y2="1079.4337">
	<stop  offset="0" style="stop-color:#7F47DD"/>
	<stop  offset="1" style="stop-color:#1B1464"/>
</linearGradient>
<path class="st35" d="M782.8,736.2c-1.8,3.7-32,64.1-32.9,65.8c1.3-1.1-48.1,19.2-45.6,4.8c3.4-11.6,9.5-41.5,22.7-49.1
	C739.3,753,770.8,740.7,782.8,736.2z"/>
<linearGradient id="SVGID_35_" gradientUnits="userSpaceOnUse" x1="979.0013" y1="554.3288" x2="979.5001" y2="567.2979" gradientTransform="matrix(0.9861 -0.1664 0.1664 0.9861 -221.6108 408.7949)">
	<stop  offset="0" style="stop-color:#E79700"/>
	<stop  offset="1" style="stop-color:#E74700"/>
</linearGradient>
<path class="st36" d="M843.4,802.5c1.5,8.2-8.9,9.9-10.2,1.7C831.7,796,842.1,794.3,843.4,802.5z"/>
<linearGradient id="SVGID_36_" gradientUnits="userSpaceOnUse" x1="981.4042" y1="600.9883" x2="981.9031" y2="613.9573" gradientTransform="matrix(0.9861 -0.1664 0.1664 0.9861 -221.6108 408.7949)">
	<stop  offset="0" style="stop-color:#E79700"/>
	<stop  offset="1" style="stop-color:#E74700"/>
</linearGradient>
<path class="st37" d="M853.5,848.1c1.5,8.2-8.9,9.9-10.2,1.7C841.8,841.6,852.2,839.9,853.5,848.1z"/>
<linearGradient id="SVGID_37_" gradientUnits="userSpaceOnUse" x1="984.311" y1="648.259" x2="984.8098" y2="661.228" gradientTransform="matrix(0.9861 -0.1664 0.1664 0.9861 -221.6108 408.7949)">
	<stop  offset="0" style="stop-color:#E79700"/>
	<stop  offset="1" style="stop-color:#E74700"/>
</linearGradient>
<path class="st38" d="M864.3,894.2c1.5,8.2-8.9,9.9-10.2,1.7C852.6,887.8,863,886.1,864.3,894.2z"/>
<linearGradient id="SVGID_38_" gradientUnits="userSpaceOnUse" x1="982.7689" y1="696.0786" x2="983.2676" y2="709.0476" gradientTransform="matrix(0.9861 -0.1664 0.1664 0.9861 -221.6108 408.7949)">
	<stop  offset="0" style="stop-color:#E79700"/>
	<stop  offset="1" style="stop-color:#E74700"/>
</linearGradient>
<path class="st39" d="M870.7,941.6c1.5,8.2-8.9,9.9-10.2,1.7C859,935.2,869.4,933.5,870.7,941.6z"/>
<linearGradient id="SVGID_39_" gradientUnits="userSpaceOnUse" x1="937.2546" y1="1559.3236" x2="902.0081" y2="1623.4904">
	<stop  offset="0" style="stop-color:#006FD0"/>
	<stop  offset="1" style="stop-color:#333333"/>
</linearGradient>
<path class="st40" d="M858,1585.8c0,0,21.6,6.7,38.8,0.3c20.5,25.1,66.8,8.9,70.5,36.7c0,0-54.4,17-113.6,5.3
	C853.6,1628.1,848.5,1606.4,858,1585.8z"/>
<linearGradient id="SVGID_40_" gradientUnits="userSpaceOnUse" x1="781.3832" y1="727.752" x2="722.0215" y2="1060.9862">
	<stop  offset="0" style="stop-color:#7F47DD"/>
	<stop  offset="1" style="stop-color:#1B1464"/>
</linearGradient>
<path class="st41" d="M814.5,895.3c-16-38.3-60.1-99.6-82.3-127.9c-6.2-2-12,0-18.4,9.9c-30.8,57.4,21.1,112.8,55.9,153.7
	C775.1,919.9,787.3,905.9,814.5,895.3z"/>
<linearGradient id="SVGID_41_" gradientUnits="userSpaceOnUse" x1="612.2327" y1="881.7367" x2="1020.5586" y2="989.2628">
	<stop  offset="0" style="stop-color:#F0877E"/>
	<stop  offset="1" style="stop-color:#FABEB2"/>
</linearGradient>
<path class="st42" d="M967.6,981.4c-0.3-0.6-0.6-1-1-1.6c-44.9-16.9-91-30.2-135-49.4c-2.3-0.9-5.1-1.4-6.6-3.5
	c-2-2.7-12.7-30.9-10.6-31.7c-27.1,10.6-39.3,24.7-44.8,35.7c22,29,29.3,40.4,67,49.2c42.4,12.8,85.9,21.1,130,25.7
	C965.7,996,967.1,983.9,967.6,981.4z"/>
<linearGradient id="SVGID_42_" gradientUnits="userSpaceOnUse" x1="1095.24" y1="724.1684" x2="1075.8901" y2="910.5378">
	<stop  offset="0" style="stop-color:#FFCEA2"/>
	<stop  offset="1" style="stop-color:#A23F00"/>
</linearGradient>
<polygon class="st43" points="1122,734.8 1113.6,858.3 1053.8,854.3 1062.2,731.8 "/>
<path class="st44" d="M1264.1,630.5l-45.3-69.9c57.9-153-186.9-204-196.3-41.2c-2.9,85.3,107.9,133.7,169.7,76.8L1264.1,630.5z"/>
<linearGradient id="SVGID_43_" gradientUnits="userSpaceOnUse" x1="1080.1459" y1="583.0667" x2="1132.3484" y2="492.0468">
	<stop  offset="0" style="stop-color:#981B24"/>
	<stop  offset="1" style="stop-color:#C12D43"/>
</linearGradient>
<path class="st45" d="M1173.6,517.1c8.7-14.8-3.2-35.1-20-36.8c-13.2-1.6-24.7,6.6-28.2,18.2c-0.3,1-1.7,1-2,0
	c-16.3-42.1-75.2-3.3-40.4,28.5C1137.1,586.7,1117.2,579.4,1173.6,517.1z"/>
<g>
	<g class="st46">
		<linearGradient id="SVGID_44_" gradientUnits="userSpaceOnUse" x1="279.8541" y1="1354.2057" x2="483.6474" y2="1354.2057">
			<stop  offset="0" style="stop-color:#7F47DD"/>
			<stop  offset="1" style="stop-color:#1B1464"/>
		</linearGradient>
		<path class="st47" d="M429.5,1474.4c22.5-15.9,67.8-19.4,50.2-59.6c-6.1-13.9-19.8-23.6-34.5-27.9c-24.1-8.5-48.2,5.4-71.2-2.1
			c-36.3-33.3,77.4-69.5,22.6-112.2c-13.5-10.5-30.6-17.6-40.9-31.6c-13.8-18.7-9.5-42.5-18.8-62.6c-9.2-19.8-24.9,2.9-23.2,17.3
			c1.5,12.8,9.2,24.2,11.8,36.8c11,52.2-57,72.6-43.9,91.5c19.4,14.2,53.7,12.8,62.5,39.6c5.2,31.2-19.9,58.1,9.8,87.8
			c19.5,17.1,27.2,21.8,23,48.2c2.5,14.3,34.5,27.4,38.4,9.7l21.6,28.4l5.5-10.2l-22.8-34.3C421.2,1485.9,423.8,1478.4,429.5,1474.4
			z M410.4,1457.2c-0.4,6-1.7,12-3.7,17.6c17.6-59.2-39.5-37.9-48.9-82.5c-8.2-27.2-0.1-55.6-2.6-83.2c-3-33-19.3-63.2-22.5-96.2
			c4.9,32.1,21.1,61.4,25.1,93.7c3.5,29-5.5,58.8,3.4,87.1C366.8,1427.1,415,1419.5,410.4,1457.2z"/>
	</g>
	<g class="st46">
		<linearGradient id="SVGID_45_" gradientUnits="userSpaceOnUse" x1="454.9879" y1="1429.7208" x2="656.2835" y2="1429.7208">
			<stop  offset="0" style="stop-color:#7F47DD"/>
			<stop  offset="1" style="stop-color:#1B1464"/>
		</linearGradient>
		<path class="st48" d="M633.7,1331.1c-7.8,5.5-12.3,14.5-19.5,20.7c-29.7,25.5-69.1-11.6-76.7,3.6c-1.8,17.6,12.3,39.3-1.8,54.6
			c-17.7,13.8-46.7,8.6-53.6,37.3c-3.4,18.4-4.4,25.9-22.6,31.9c-8.5,7-4.3,32.2,8.4,28.4l-10.3,24.1l8.8,0l13.6-27
			c28.3-10.4,48.9,44.5,74.4,11.6c6.8-8.9,7.8-21.2,4.9-32.2c-3.7-18.7-22-29.4-26-47.1c7.8-35.3,75.1,25.9,82-24.8
			c1.7-12.5-0.3-26.1,4.9-37.8c6.9-15.6,24.1-21.1,33.6-34.3C663.3,1327.1,642.5,1324.9,633.7,1331.1z M627.1,1351.6
			c-18.1,14.6-30.9,35-50.3,48.2c-17.3,11.9-39.4,16.4-54.2,31.9c-22.3,21.1,9.7,51.1-35.5,58.2c44.5-8.4,10.2-39.6,35.1-60.9
			c14.8-15,36.2-19.6,53.4-31c20.3-13.5,33.9-34.8,54.2-48.5L627.1,1351.6z"/>
	</g>
	<g>
		<linearGradient id="SVGID_46_" gradientUnits="userSpaceOnUse" x1="318.0076" y1="1252.8987" x2="547.7956" y2="1252.8987">
			<stop  offset="0" style="stop-color:#7F47DD"/>
			<stop  offset="1" style="stop-color:#1B1464"/>
		</linearGradient>
		<path class="st49" d="M521.6,1126.1c-41.1-11.5-83.1-38.3-91.1-80c-3.8-19.6,0.5-40.3-5-59.5c-6.2-21.7-42-45-43.4-11.3
			c10.1,91.1,30.8,86.6-29.6,169.4c-58.5,93.3,159.7,86.1,88.8,155.2c-49.7,16.3-120.8,31.7-123.3,96.5
			c-1.1,87.7,101,23.3,132.6,77.1l-12.3,62.4l13.9,11.4l14-53.2c16,22.9,53.9-14.4,49.1-36.3c-1.8-8.5-8.6-15-11.7-23.1
			c-10.1-42.2,44.6-67.9,11.9-129.3c-26.4-38.4-53.7-66.8-13.6-108.4C522.1,1175.1,581.8,1142.5,521.6,1126.1z M479.1,1318.4
			c-13,54.1-72.9,51.3-21.1,121.5c-61.3-73.2,19.9-74.3,17.4-135.6c-0.7-13.7-3.5-27.3-7.9-40.3c-12.4-35-34.2-66.6-42-103.4
			c-10-45.6-5.9-93-17-138.3c15.6,51.2,9.2,106.6,27,157.2C452,1224.8,485.5,1267.7,479.1,1318.4z"/>
	</g>
	<linearGradient id="SVGID_47_" gradientUnits="userSpaceOnUse" x1="381.3298" y1="1576.4406" x2="522.9546" y2="1576.4406">
		<stop  offset="0" style="stop-color:#7F47DD"/>
		<stop  offset="1" style="stop-color:#1B1464"/>
	</linearGradient>
	<path class="st50" d="M523,1556.6c-5.8,112.7-177.1,75.8-135-29.2h128.6C520.7,1536.3,523,1546.2,523,1556.6z"/>
</g>
<g class="st6">
	<g class="st51">
		<linearGradient id="SVGID_48_" gradientUnits="userSpaceOnUse" x1="1334.9658" y1="1023.4468" x2="2010.9125" y2="1023.4468">
			<stop  offset="8.151518e-07" style="stop-color:#ED1C24"/>
			<stop  offset="1" style="stop-color:#C1272D"/>
		</linearGradient>
		<path class="st52" d="M1992.1,1626.7h-638.3c-10.4,0-18.8-8.4-18.8-18.8V439c0-10.4,8.4-18.8,18.8-18.8h638.3
			c10.4,0,18.8,8.4,18.8,18.8v1168.8C2010.9,1618.3,2002.5,1626.7,1992.1,1626.7z"/>
	</g>
	<g class="st0">
		<linearGradient id="SVGID_49_" gradientUnits="userSpaceOnUse" x1="1378.6418" y1="1023.4467" x2="1967.2365" y2="1023.4467">
			<stop  offset="8.151518e-07" style="stop-color:#ED1C24"/>
			<stop  offset="1" style="stop-color:#C1272D"/>
		</linearGradient>
		<path class="st53" d="M1948.4,1566.8h-550.9c-10.4,0-18.8-8.4-18.8-18.8V498.9c0-10.4,8.4-18.8,18.8-18.8h550.9
			c10.4,0,18.8,8.4,18.8,18.8V1548C1967.2,1558.4,1958.8,1566.8,1948.4,1566.8z"/>
	</g>
	<g class="st6">
		<linearGradient id="SVGID_50_" gradientUnits="userSpaceOnUse" x1="1827.6893" y1="1023.4467" x2="1903.3657" y2="1023.4467">
			<stop  offset="8.151518e-07" style="stop-color:#ED1C24"/>
			<stop  offset="1" style="stop-color:#C1272D"/>
		</linearGradient>
		<path class="st54" d="M1903.4,1023.4c-0.8,49.3-74.8,49.3-75.7,0C1828.5,974.1,1902.5,974.2,1903.4,1023.4z"/>
	</g>
</g>
<g>
	<g>
		
			<linearGradient id="SVGID_51_" gradientUnits="userSpaceOnUse" x1="-1822.2881" y1="1469.7133" x2="-1825.833" y2="1520.7589" gradientTransform="matrix(0.9972 -7.450000e-02 7.450000e-02 0.9972 3019.7871 -14.5497)">
			<stop  offset="0" style="stop-color:#5C2100"/>
			<stop  offset="1" style="stop-color:#772900"/>
		</linearGradient>
		<path class="st55" d="M1308.8,1611.8c0,0-24.6,20.8-51.3,15c2.2,25.6,89.2,23.4,109.6,9.8
			C1357.9,1600,1339.4,1597.6,1308.8,1611.8z"/>
		
			<linearGradient id="SVGID_52_" gradientUnits="userSpaceOnUse" x1="6259.5195" y1="1660.4213" x2="6248.2915" y2="1699.7197" gradientTransform="matrix(-0.9996 2.630000e-02 2.630000e-02 0.9996 7532.6436 -249.0858)">
			<stop  offset="0" style="stop-color:#F0877E"/>
			<stop  offset="1" style="stop-color:#FABEB2"/>
		</linearGradient>
		<path class="st56" d="M1309.4,1591c0,0,1.2,13.3,1.4,20c0.1,2.9,26.7,3.3,37.7-5.6l-5.4-15.7l-26.8-7.3L1309.4,1591z"/>
	</g>
	
		<linearGradient id="SVGID_53_" gradientUnits="userSpaceOnUse" x1="-1801.7548" y1="989.28" x2="-1757.1588" y2="1492.2189" gradientTransform="matrix(0.9972 -7.450000e-02 7.450000e-02 0.9972 3019.7871 -14.5497)">
		<stop  offset="0" style="stop-color:#5C2100"/>
		<stop  offset="1" style="stop-color:#772900"/>
	</linearGradient>
	<path class="st57" d="M1338.9,1339.5c20.8,78,7.5,249.6,4.2,250.2c-19.9,11.6-33.7,1.3-33.7,1.3c-10.5-73.7-72.1-465.1-37.7-549.3
		l49.3-18.2c13.2,14.3,29.7,34.6,40.1,67.6C1376.3,1147.2,1344.3,1292.6,1338.9,1339.5z"/>
	
		<linearGradient id="SVGID_54_" gradientUnits="userSpaceOnUse" x1="-1827.0372" y1="1066.8051" x2="-1733.9883" y2="1066.8051" gradientTransform="matrix(0.9972 -7.450000e-02 7.450000e-02 0.9972 3019.7871 -14.5497)">
		<stop  offset="0" style="stop-color:#5C2100"/>
		<stop  offset="1" style="stop-color:#772900"/>
	</linearGradient>
	<path class="st58" d="M1365.5,1117.1c2.3,45.7-20.9,188.3-26.6,222.3c5.3-35.3,1.7-176.8-28.5-239.4c-30.2-62.6-40.6-37-40.6-37
		l-1.8-2.4c1.9-13,3.6-19,3.6-19l49.3-18.2c3.5-0.2,37.7,64.1,40.1,67.6C1363.4,1099.3,1365.1,1108.1,1365.5,1117.1z"/>
	
		<linearGradient id="SVGID_55_" gradientUnits="userSpaceOnUse" x1="-1994.1278" y1="1244.9363" x2="-2112.3196" y2="1219.0465" gradientTransform="matrix(0.9996 2.810000e-02 -2.810000e-02 0.9996 3221.3684 -303.0354)">
		<stop  offset="0" style="stop-color:#F0877E"/>
		<stop  offset="1" style="stop-color:#FABEB2"/>
	</linearGradient>
	<path class="st59" d="M1121.2,892.6c-4.4,0.2-10.4-1.9-14.4-1.4c-4.4,0.1-18.6-7.2-24.4-11.6c-8.7-8.5,9.4-1.1,12.6,0.3
		c-6.6-2.3-34-25-12.1-15.2c9,5.8,10.3,8,15.7,8.8c-4.7-0.3-36.9-33.1-14-19.3c8.3,7.2,9.1,9.4,14.7,10.9
		c-4.2-1.6-23.5-43.9-6.7-23.1c6.1,12.7,8,14,16.4,20.5c0,0,6.1,3.6,6.7-4.2c0.6-7.8-1.2-13,1.2-16.2c2.4-3.2,3.1-3.3,4.1-1.9
		c-1.8,10.2,2.5,9.3,5.7,19.2c2.3,7.1,10.3,8.8,16.8,8.8c-0.4,0.4-11.6,10.3-8.9,27.6c-4.5-1.1-9-2.4-13.4-3.6
		C1121.1,892.6,1121.1,892.6,1121.2,892.6z"/>
	<linearGradient id="SVGID_56_" gradientUnits="userSpaceOnUse" x1="1506.766" y1="800.2943" x2="1336.2023" y2="534.9726">
		<stop  offset="0" style="stop-color:#5C1A00"/>
		<stop  offset="1" style="stop-color:#B94300"/>
	</linearGradient>
	<path class="st60" d="M1310.3,607.4c5.4-24.8,28.9-47,43.6-34.8c0,0,6.8-41.2,41.8-22.9c22.7,12.8,35.4,36.9,57.7,50.4
		c23,19.9,53.6,21.1,81.2,29.7c22.6,8.9,47.3,38.3,36.8,63.9c-2.7,6.5-2.9,13.4-1.3,20.2c0.6,3.1,6.6,36.6-18.4,40.3
		c-26.1,3.7-9.3,30.2-40.3,41.9c-31,11.7-19.8-7.6-43.4,5.4c-23.6,13-26.8-1.6-26.8-1.6c-2.5-27.1-13.6-32.8-45.6-50.2
		c-5,2.9-11.4,4.7-20.6,3.8c-33-3.1-14.4-15.5-41.3-14.2s-23.3-13.2-23.3-13.2c4.6-20.1,11.2-24.8-11.3-53.9
		C1270.4,635.1,1304.9,632.2,1310.3,607.4z"/>
	<g>
		
			<linearGradient id="SVGID_57_" gradientUnits="userSpaceOnUse" x1="7525.5254" y1="1223.4623" x2="7528.376" y2="1278.7593" gradientTransform="matrix(-0.998 -6.280000e-02 -6.280000e-02 0.998 8956.0918 -46.1283)">
			<stop  offset="0" style="stop-color:#F0877E"/>
			<stop  offset="1" style="stop-color:#FABEB2"/>
		</linearGradient>
		<path class="st61" d="M1348.8,697.2c0,0,2.7,60.3-16.6,66.6c0,0,27.4,33.2,60.4-10.9c0,0-4-31.9,3.6-56.2L1348.8,697.2z"/>
		
			<linearGradient id="SVGID_58_" gradientUnits="userSpaceOnUse" x1="7545.8184" y1="2246.1492" x2="7559.1934" y2="2370.5349" gradientTransform="matrix(-0.9412 -0.1681 -0.1802 0.8411 8904.29 -22.2254)">
			<stop  offset="0" style="stop-color:#F0877E"/>
			<stop  offset="1" style="stop-color:#FABEB2"/>
		</linearGradient>
		<path class="st62" d="M1328.8,625.7c10,33.4-24.3,70.6,19.2,105.4c13.1-0.9,68.5-2.5,74.2-49.6c2.8-7.9,15.3-10.8,11.4-24.6
			s-10.9-5.9-10.9-5.9s-0.2-10.4-1.1-19.3C1420.7,622.8,1328.8,625.7,1328.8,625.7z"/>
	</g>
	<linearGradient id="SVGID_59_" gradientUnits="userSpaceOnUse" x1="1502.2046" y1="804.223" x2="1330.8646" y2="537.6938">
		<stop  offset="0" style="stop-color:#5C1A00"/>
		<stop  offset="1" style="stop-color:#B94300"/>
	</linearGradient>
	<path class="st63" d="M1328.8,625.7c0,0,18.7,54.8,96.5,26.1c77.8-28.8-46.3-43.4-46.3-43.4L1328.8,625.7z"/>
	
		<linearGradient id="SVGID_60_" gradientUnits="userSpaceOnUse" x1="-193.9184" y1="-1179.4025" x2="-197.8419" y2="-1122.9054" gradientTransform="matrix(0.7319 -0.6814 0.6814 0.7319 2421.624 2306.0151)">
		<stop  offset="0" style="stop-color:#5C2100"/>
		<stop  offset="1" style="stop-color:#772900"/>
	</linearGradient>
	<path class="st64" d="M1492.2,1586.6c0,0,2.6,45.9-31.7,58.9c18.3,19.2,87.2-38.2,94.9-62.4
		C1532.4,1565.3,1513.9,1565.8,1492.2,1586.6z"/>
	
		<linearGradient id="SVGID_61_" gradientUnits="userSpaceOnUse" x1="5749.355" y1="377.9168" x2="5737.7051" y2="418.6922" gradientTransform="matrix(-0.951 0.309 0.309 0.951 6840.9194 -587.3215)">
		<stop  offset="0" style="stop-color:#F0877E"/>
		<stop  offset="1" style="stop-color:#FABEB2"/>
	</linearGradient>
	<path class="st65" d="M1484.8,1567.2c0,0,5.1,12.9,7.4,19.5c1,2.9,27.5-4.5,35.7-16.6l-10.1-14l-28.7,0.6L1484.8,1567.2z"/>
	<g>
		
			<linearGradient id="SVGID_62_" gradientUnits="userSpaceOnUse" x1="-1497.996" y1="321.9296" x2="-1453.1631" y2="827.5416" gradientTransform="matrix(0.9752 -0.2214 0.2214 0.9752 2763.9219 451.2917)">
			<stop  offset="0" style="stop-color:#5C2100"/>
			<stop  offset="1" style="stop-color:#772900"/>
		</linearGradient>
		<path class="st66" d="M1449.9,1327.4c27.6,75.1,58.6,152.1,69.4,231.8c-9.1,8.2-19.7,15.5-32.6,12.2
			c-75.9-162.5-166.4-350.9-150.6-535.7c15.8-6.2,32-15.9,47.5-23.9c26.4,23.4,50.8,50.9,58,90.7
			C1451.3,1172.3,1448.3,1256.9,1449.9,1327.4z"/>
	</g>
	
		<linearGradient id="SVGID_63_" gradientUnits="userSpaceOnUse" x1="-1828.2654" y1="1364.9019" x2="-2134.658" y2="1401.9381" gradientTransform="matrix(0.998 6.280000e-02 -6.280000e-02 0.998 3292.8904 -402.0278)">
		<stop  offset="0" style="stop-color:#981B24"/>
		<stop  offset="1" style="stop-color:#C12D43"/>
	</linearGradient>
	<path class="st67" d="M1302.2,775.1c41.2,68.7,10.4,118-48.9,152.4c-0.3-0.2-0.7-0.4-1-0.5c-13.2,3.5-26.9-1.3-39.8-5.6
		c-28.8-9.6-58.4-15.8-86.5-27.4c0,0,8.2-11.2,8.1-26.4c33.8,3.8,99.8,10.7,101.1,10.8c0,0,0,0,0,0
		C1261.2,868.5,1302.2,775.1,1302.2,775.1z"/>
	
		<linearGradient id="SVGID_64_" gradientUnits="userSpaceOnUse" x1="4640.3379" y1="917.7809" x2="4616.374" y2="645.788" gradientTransform="matrix(-0.9972 7.450000e-02 7.450000e-02 0.9972 5917.7656 -231.3987)">
		<stop  offset="0" style="stop-color:#981B24"/>
		<stop  offset="1" style="stop-color:#C12D43"/>
	</linearGradient>
	<path class="st68" d="M1452.4,879.2c-8.7,53.4-23.4,107-40.1,158c-50.3,16.7-148.1,7.4-141.1,5c6.6-26.8,9.9-85.4,6.7-120
		c0.5-23.1-13.5-42.3-12.7-65.4c0.4-17.9,12-29.5,18.5-44.6c5.2-11.5,10.1-23.2,15.9-34.3c11.7-13.2,34.6-13.6,45.1-28.5
		c-0.8,1.6-8.8,18.6,7.6,19.7c27.9,0.7,40.7-16.8,40.7-16.8C1451.8,762.9,1466.1,828.4,1452.4,879.2z"/>
	
		<linearGradient id="SVGID_65_" gradientUnits="userSpaceOnUse" x1="-1907.7551" y1="1412.8403" x2="-1907.9243" y2="1411.7783" gradientTransform="matrix(0.998 6.280000e-02 -6.280000e-02 0.998 3292.8904 -402.0278)">
		<stop  offset="0" style="stop-color:#E75B00"/>
		<stop  offset="1" style="stop-color:#FFA345"/>
	</linearGradient>
	<path class="st69" d="M1298.8,887c0.3,0.1,1.2,0.4,2.6,0.8C1300.4,887.5,1299.5,887.2,1298.8,887z"/>
	
		<linearGradient id="SVGID_66_" gradientUnits="userSpaceOnUse" x1="-1959.3307" y1="1371.0988" x2="-1959.8407" y2="1372.5013" gradientTransform="matrix(0.998 6.280000e-02 -6.280000e-02 0.998 3292.8904 -402.0278)">
		<stop  offset="0" style="stop-color:#00D1D0"/>
		<stop  offset="1" style="stop-color:#0098D0"/>
	</linearGradient>
	<path class="st70" d="M1251.8,843.3l-1.3,1.2C1250.8,844,1251.3,843.6,1251.8,843.3z"/>
</g>
</svg>
