<?xml version="1.0" encoding="utf-8"?>
<!-- Generator: Adobe Illustrator 24.3.0, SVG Export Plug-In . SVG Version: 6.00 Build 0)  -->
<svg version="1.1" id="_x33_4" xmlns="http://www.w3.org/2000/svg" xmlns:xlink="http://www.w3.org/1999/xlink" x="0px" y="0px"
	 viewBox="0 0 2300 1800" style="enable-background:new 0 0 2300 1800;" xml:space="preserve">
<style type="text/css">
	.st0{opacity:0.3;}
	.st1{opacity:0.8;fill:url(#SVGID_1_);}
	.st2{opacity:0.6;fill:url(#SVGID_2_);}
	.st3{opacity:0.6;fill:url(#SVGID_3_);}
	.st4{opacity:0.5;fill:url(#SVGID_4_);}
	.st5{opacity:0.5;fill:url(#SVGID_5_);}
	.st6{opacity:0.5;}
	.st7{opacity:0.5;fill:url(#SVGID_6_);}
	.st8{fill:url(#SVGID_7_);}
	.st9{opacity:0.1;fill:url(#SVGID_8_);}
	.st10{opacity:0.1;fill:url(#SVGID_9_);}
	.st11{opacity:0.1;fill:url(#SVGID_10_);}
	.st12{opacity:0.1;fill:url(#SVGID_11_);}
	.st13{opacity:0.1;fill:url(#SVGID_12_);}
	.st14{fill:url(#SVGID_13_);}
	.st15{fill:#5105A3;}
	.st16{fill:url(#SVGID_14_);}
	.st17{fill:url(#SVGID_15_);}
	.st18{fill:url(#SVGID_16_);}
	.st19{fill:url(#SVGID_17_);}
	.st20{fill:url(#SVGID_18_);}
	.st21{opacity:0.5;fill:url(#SVGID_19_);}
	.st22{fill:url(#SVGID_20_);}
	.st23{fill:#4D4D4D;}
	.st24{fill:url(#SVGID_21_);}
	.st25{fill:url(#SVGID_22_);}
	.st26{fill:url(#SVGID_23_);}
	.st27{opacity:0.5;fill:url(#SVGID_24_);}
	.st28{fill:url(#SVGID_25_);}
	.st29{fill:url(#SVGID_26_);}
	.st30{opacity:0.5;fill:url(#SVGID_27_);}
	.st31{opacity:0.5;fill:url(#SVGID_28_);}
	.st32{fill:url(#SVGID_29_);}
	.st33{opacity:0.5;fill:url(#SVGID_30_);}
	.st34{fill:url(#SVGID_31_);}
	.st35{fill:url(#SVGID_32_);}
	.st36{fill:url(#SVGID_33_);}
	.st37{fill:url(#SVGID_34_);}
	.st38{fill:url(#SVGID_35_);}
	.st39{fill:url(#SVGID_36_);}
	.st40{fill:url(#SVGID_37_);}
	.st41{opacity:0.5;fill:url(#SVGID_38_);}
	.st42{fill:url(#SVGID_39_);}
	.st43{fill:url(#SVGID_40_);}
	.st44{fill:url(#SVGID_41_);}
	.st45{fill:url(#SVGID_42_);}
	.st46{opacity:0.3;fill:url(#SVGID_43_);}
	.st47{opacity:0.3;fill:url(#SVGID_44_);}
	.st48{fill:url(#SVGID_45_);}
	.st49{opacity:0.3;fill:url(#SVGID_46_);}
	.st50{fill:url(#SVGID_47_);}
	.st51{fill:url(#SVGID_48_);}
	.st52{fill:url(#SVGID_49_);}
	.st53{opacity:0.3;fill:url(#SVGID_50_);}
	.st54{fill:url(#SVGID_51_);}
	.st55{opacity:0.8;fill:#FFFFFF;}
	.st56{fill:url(#SVGID_52_);}
</style>
<g>
	<g class="st0">
		<linearGradient id="SVGID_1_" gradientUnits="userSpaceOnUse" x1="352.1129" y1="893.2577" x2="1920.4602" y2="893.2577">
			<stop  offset="5.434346e-07" style="stop-color:#5105A3"/>
			<stop  offset="0.251" style="stop-color:#4E069F"/>
			<stop  offset="0.5041" style="stop-color:#430993"/>
			<stop  offset="0.7572" style="stop-color:#320E7F"/>
			<stop  offset="1" style="stop-color:#1B1464"/>
		</linearGradient>
		<path class="st1" d="M1920.5,893.3c-17.5,1021.8-1551,1021.6-1568.3,0C369.6-128.5,1903.1-128.4,1920.5,893.3z"/>
		<linearGradient id="SVGID_2_" gradientUnits="userSpaceOnUse" x1="63.2549" y1="1213.887" x2="982.1725" y2="1213.887">
			<stop  offset="5.434346e-07" style="stop-color:#5105A3"/>
			<stop  offset="0.251" style="stop-color:#4E069F"/>
			<stop  offset="0.5041" style="stop-color:#430993"/>
			<stop  offset="0.7572" style="stop-color:#320E7F"/>
			<stop  offset="1" style="stop-color:#1B1464"/>
		</linearGradient>
		<path class="st2" d="M982.2,1213.9c-10.3,598.7-908.8,598.6-918.9,0C73.5,615.2,972,615.3,982.2,1213.9z"/>
		<linearGradient id="SVGID_3_" gradientUnits="userSpaceOnUse" x1="1290.0994" y1="1213.887" x2="2209.0171" y2="1213.887">
			<stop  offset="5.434346e-07" style="stop-color:#5105A3"/>
			<stop  offset="0.251" style="stop-color:#4E069F"/>
			<stop  offset="0.5041" style="stop-color:#430993"/>
			<stop  offset="0.7572" style="stop-color:#320E7F"/>
			<stop  offset="1" style="stop-color:#1B1464"/>
		</linearGradient>
		<path class="st3" d="M1290.1,1213.9c10.3,598.7,908.8,598.6,918.9,0C2198.8,615.2,1300.3,615.3,1290.1,1213.9z"/>
		<linearGradient id="SVGID_4_" gradientUnits="userSpaceOnUse" x1="1579.4347" y1="750.1665" x2="2209.0171" y2="750.1665">
			<stop  offset="5.434346e-07" style="stop-color:#5105A3"/>
			<stop  offset="0.251" style="stop-color:#4E069F"/>
			<stop  offset="0.5041" style="stop-color:#430993"/>
			<stop  offset="0.7572" style="stop-color:#320E7F"/>
			<stop  offset="1" style="stop-color:#1B1464"/>
		</linearGradient>
		<path class="st4" d="M1579.4,750.2c7,410.2,622.6,410.1,629.6,0C2202,340,1586.4,340.1,1579.4,750.2z"/>
		<linearGradient id="SVGID_5_" gradientUnits="userSpaceOnUse" x1="63.2547" y1="750.1665" x2="692.8372" y2="750.1665">
			<stop  offset="5.434346e-07" style="stop-color:#5105A3"/>
			<stop  offset="0.251" style="stop-color:#4E069F"/>
			<stop  offset="0.5041" style="stop-color:#430993"/>
			<stop  offset="0.7572" style="stop-color:#320E7F"/>
			<stop  offset="1" style="stop-color:#1B1464"/>
		</linearGradient>
		<path class="st5" d="M692.8,750.2c-7,410.2-622.6,410.1-629.6,0C70.3,340,685.9,340.1,692.8,750.2z"/>
	</g>
	<g class="st6">
		<linearGradient id="SVGID_6_" gradientUnits="userSpaceOnUse" x1="282.6015" y1="1673.0476" x2="1989.6699" y2="1673.0476">
			<stop  offset="5.434346e-07" style="stop-color:#5105A3"/>
			<stop  offset="0.251" style="stop-color:#4E069F"/>
			<stop  offset="0.5041" style="stop-color:#430993"/>
			<stop  offset="0.7572" style="stop-color:#320E7F"/>
			<stop  offset="1" style="stop-color:#1B1464"/>
		</linearGradient>
		<path class="st7" d="M1988.9,1673.1c42.9,85.1-1748.5,85.1-1705.5,0C240.5,1588,2031.9,1588,1988.9,1673.1z"/>
		<g class="st6">
			<linearGradient id="SVGID_7_" gradientUnits="userSpaceOnUse" x1="412.3447" y1="1673.0492" x2="1859.927" y2="1673.0492">
				<stop  offset="5.434346e-07" style="stop-color:#5105A3"/>
				<stop  offset="0.251" style="stop-color:#4E069F"/>
				<stop  offset="0.5041" style="stop-color:#430993"/>
				<stop  offset="0.7572" style="stop-color:#320E7F"/>
				<stop  offset="1" style="stop-color:#1B1464"/>
			</linearGradient>
			<path class="st8" d="M1859.2,1673.1c37.7,38.7-1484,38.7-1446.2,0C375.4,1634.4,1897,1634.4,1859.2,1673.1z"/>
		</g>
	</g>
</g>
<g>
	<linearGradient id="SVGID_8_" gradientUnits="userSpaceOnUse" x1="284.9146" y1="1362.4644" x2="577.3569" y2="1362.4644">
		<stop  offset="5.434346e-07" style="stop-color:#5105A3"/>
		<stop  offset="0.251" style="stop-color:#4E069F"/>
		<stop  offset="0.5041" style="stop-color:#430993"/>
		<stop  offset="0.7572" style="stop-color:#320E7F"/>
		<stop  offset="1" style="stop-color:#1B1464"/>
	</linearGradient>
	<path class="st9" d="M571.3,1053H290.9c-3.3,0-6,2.7-6,6v606.9c0,3.3,2.7,6,6,6h280.4c3.3,0,6-2.7,6-6V1059
		C577.4,1055.7,574.7,1053,571.3,1053z"/>
	<linearGradient id="SVGID_9_" gradientUnits="userSpaceOnUse" x1="577.3569" y1="1444.3887" x2="869.7994" y2="1444.3887">
		<stop  offset="5.434346e-07" style="stop-color:#5105A3"/>
		<stop  offset="0.251" style="stop-color:#4E069F"/>
		<stop  offset="0.5041" style="stop-color:#430993"/>
		<stop  offset="0.7572" style="stop-color:#320E7F"/>
		<stop  offset="1" style="stop-color:#1B1464"/>
	</linearGradient>
	<path class="st10" d="M863.8,1216.8H583.4c-3.3,0-6,2.7-6,6v443.1c0,3.3,2.7,6,6,6h280.4c3.3,0,6-2.7,6-6v-443.1
		C869.8,1219.5,867.1,1216.8,863.8,1216.8z"/>
	<linearGradient id="SVGID_10_" gradientUnits="userSpaceOnUse" x1="869.7994" y1="1094.5919" x2="1387.866" y2="1094.5919">
		<stop  offset="5.434346e-07" style="stop-color:#5105A3"/>
		<stop  offset="0.251" style="stop-color:#4E069F"/>
		<stop  offset="0.5041" style="stop-color:#430993"/>
		<stop  offset="0.7572" style="stop-color:#320E7F"/>
		<stop  offset="1" style="stop-color:#1B1464"/>
	</linearGradient>
	<path class="st11" d="M1381.8,517.2h-506c-3.3,0-6,2.7-6,6v1142.7c0,3.3,2.7,6,6,6h506c3.3,0,6-2.7,6-6V523.3
		C1387.9,519.9,1385.2,517.2,1381.8,517.2z"/>
	<linearGradient id="SVGID_11_" gradientUnits="userSpaceOnUse" x1="1387.5873" y1="1319.5533" x2="1694.9148" y2="1319.5533">
		<stop  offset="5.434346e-07" style="stop-color:#5105A3"/>
		<stop  offset="0.251" style="stop-color:#4E069F"/>
		<stop  offset="0.5041" style="stop-color:#430993"/>
		<stop  offset="0.7572" style="stop-color:#320E7F"/>
		<stop  offset="1" style="stop-color:#1B1464"/>
	</linearGradient>
	<path class="st12" d="M1688.9,967.1h-295.3c-3.3,0-6,2.7-6,6v692.8c0,3.3,2.7,6,6,6h295.3c3.3,0,6-2.7,6-6V973.2
		C1694.9,969.8,1692.2,967.1,1688.9,967.1z"/>
	<linearGradient id="SVGID_12_" gradientUnits="userSpaceOnUse" x1="1694.9148" y1="1376.323" x2="1987.3573" y2="1376.323">
		<stop  offset="5.434346e-07" style="stop-color:#5105A3"/>
		<stop  offset="0.251" style="stop-color:#4E069F"/>
		<stop  offset="0.5041" style="stop-color:#430993"/>
		<stop  offset="0.7572" style="stop-color:#320E7F"/>
		<stop  offset="1" style="stop-color:#1B1464"/>
	</linearGradient>
	<path class="st13" d="M1981.3,1080.7h-280.4c-3.3,0-6,2.7-6,6v579.2c0,3.3,2.7,6,6,6h280.4c3.3,0,6-2.7,6-6v-579.2
		C1987.4,1083.4,1984.7,1080.7,1981.3,1080.7z"/>
</g>
<linearGradient id="SVGID_13_" gradientUnits="userSpaceOnUse" x1="1194.3593" y1="932.9356" x2="1402.8015" y2="867.7276">
	<stop  offset="0" style="stop-color:#F0877E"/>
	<stop  offset="1" style="stop-color:#FABEB2"/>
</linearGradient>
<path class="st14" d="M1366.7,908.2c-51.5-9.1-171.7-26.7-171.7-26.7c-5.8-2.3-11.5-5.2-17.1-8.6c-6,10.3-14.3,30-17.6,63.2
	c10.9,9.2,25.6,8.1,39.3,7.9c55.1-0.8,109.9,7.8,164.9,0.8C1361.1,932.5,1362.9,920.3,1366.7,908.2z"/>
<path class="st15" d="M1085.4,775.7c-29.7,1.8-39.1,53.3-17.3,87.4c19.6,35.1,60.4,51.3,92.1,73.1c3.3-33.3,11.6-52.9,17.6-63.2
	C1142.8,851.7,1112,810.9,1085.4,775.7z"/>
<linearGradient id="SVGID_14_" gradientUnits="userSpaceOnUse" x1="5506.7026" y1="719.4583" x2="5509.7988" y2="779.531" gradientTransform="matrix(1 0 0 1 -4422.2202 0)">
	<stop  offset="0" style="stop-color:#F0877E"/>
	<stop  offset="1" style="stop-color:#FABEB2"/>
</linearGradient>
<path class="st16" d="M1114.3,715.2c0,0-7.3,57.8,9,73.6c0,0-36.9,34.6-71.4-18.2c0,0,15.2-31,8.3-59.4L1114.3,715.2z"/>
<g>
	<linearGradient id="SVGID_15_" gradientUnits="userSpaceOnUse" x1="1282.8369" y1="1529.7415" x2="1146.9611" y2="1119.6206">
		<stop  offset="5.434346e-07" style="stop-color:#5105A3"/>
		<stop  offset="0.251" style="stop-color:#4E069F"/>
		<stop  offset="0.5041" style="stop-color:#430993"/>
		<stop  offset="0.7572" style="stop-color:#320E7F"/>
		<stop  offset="1" style="stop-color:#1B1464"/>
	</linearGradient>
	<path class="st17" d="M1261.5,1168.7c1.8-4.8-13.6-7.2-30.8-8.5c-43.8-2.6-53.8-1-89.3,1.5c-47.6,2.3-114.4,7.4-151.6-28.3
		c-18.5-26.3,23.8-100.9,23.8-100.9l53.6-26.8l7.5,9.7l2.9-2.8c7.3,4.9,47.9,32.4,56,38c25.2-0.9,102.1,4.8,137.6,16.9
		c1.2,0.7,36.8,21.1,38.9,61.8l-49.4,41.9C1261.2,1169.5,1261.5,1168.7,1261.5,1168.7z"/>
	<linearGradient id="SVGID_16_" gradientUnits="userSpaceOnUse" x1="1369.4943" y1="1500.3146" x2="1233.9076" y2="1091.0667">
		<stop  offset="5.434346e-07" style="stop-color:#5105A3"/>
		<stop  offset="0.251" style="stop-color:#4E069F"/>
		<stop  offset="0.5041" style="stop-color:#430993"/>
		<stop  offset="0.7572" style="stop-color:#320E7F"/>
		<stop  offset="1" style="stop-color:#1B1464"/>
	</linearGradient>
	<path class="st18" d="M1310.4,1128.9c-2.6,82.3-22.5,209-22.3,206.5c-20.2,6.8-37.8,5.1-37.8,5.1c4.7-80.1-34.1-161.4-14.5-240.1
		c0,0,18.1-16.9,35.4-33.1c1.2,0.7,36.8,21.1,38.9,61.8L1310.4,1128.9z"/>
	<linearGradient id="SVGID_17_" gradientUnits="userSpaceOnUse" x1="1271.1" y1="1060.5952" x2="1302.2188" y2="1350.6208">
		<stop  offset="5.434346e-07" style="stop-color:#5105A3"/>
		<stop  offset="0.251" style="stop-color:#4E069F"/>
		<stop  offset="0.5041" style="stop-color:#430993"/>
		<stop  offset="0.7572" style="stop-color:#320E7F"/>
		<stop  offset="1" style="stop-color:#1B1464"/>
	</linearGradient>
	<path class="st19" d="M1251,1339c0,0,19.2,3.1,37.1-3.6c28.3,33.5,72.2,11.8,77.1,42.4c0,0-57,22.1-119,9.8
		C1246.3,1387.5,1241.1,1360.6,1251,1339z"/>
</g>
<g>
	<linearGradient id="SVGID_18_" gradientUnits="userSpaceOnUse" x1="1799.4019" y1="1257.7988" x2="1539.6201" y2="1514.5594">
		<stop  offset="0" style="stop-color:#B3B3B3"/>
		<stop  offset="1" style="stop-color:#4D4D4D"/>
	</linearGradient>
	<path class="st20" d="M1698.7,1502.4c-3.3,191.3-290.4,191.3-293.6,0C1408.3,1311.2,1695.4,1311.2,1698.7,1502.4z"/>
	<linearGradient id="SVGID_19_" gradientUnits="userSpaceOnUse" x1="1645.4028" y1="1410.0427" x2="1500.8191" y2="1552.9449">
		<stop  offset="0" style="stop-color:#B3B3B3"/>
		<stop  offset="1" style="stop-color:#4D4D4D"/>
	</linearGradient>
	<path class="st21" d="M1667.8,1591.8c-140.4,164.5-372.5-63.6-206-204.2C1357.1,1522.1,1533.8,1695,1667.8,1591.8z"/>
</g>
<linearGradient id="SVGID_20_" gradientUnits="userSpaceOnUse" x1="1205.1062" y1="945.4896" x2="1456.9304" y2="900.2518">
	<stop  offset="0" style="stop-color:#E75100"/>
	<stop  offset="1" style="stop-color:#FFA345"/>
</linearGradient>
<path class="st22" d="M1462.7,926.7c-66.7,0.3-96.1-29.6-102.1-36.6C1417.3,888.2,1438.3,879.4,1462.7,926.7z"/>
<path class="st23" d="M1120.3,1191.9c0,0,37.1-16.3,16-35.7H758c0,0-54.1,35.7,2.4,35.7H1120.3z"/>
<g>
	<linearGradient id="SVGID_21_" gradientUnits="userSpaceOnUse" x1="1822.2777" y1="1206.9728" x2="779.4365" y2="1752.1454">
		<stop  offset="2.663895e-07" style="stop-color:#5105A3"/>
		<stop  offset="1" style="stop-color:#7F47DD"/>
	</linearGradient>
	<path class="st24" d="M1677.8,1399.8c-108.2-45.8-205.9,1.2-246.8,26.6c-26.7,20.1-67.7-7.7-93.2-17
		c38.6-173.9,292.6-189.8,352.9-21.8C1693.6,1395.6,1685.6,1403.2,1677.8,1399.8z"/>
</g>
<g class="st6">
	<linearGradient id="SVGID_22_" gradientUnits="userSpaceOnUse" x1="1612.2379" y1="1259.5231" x2="988.9342" y2="1585.3713">
		<stop  offset="0" style="stop-color:#6DDDD0"/>
		<stop  offset="1" style="stop-color:#5105A3"/>
	</linearGradient>
	<path class="st25" d="M1484.5,1271.3c-1.6,21.7-14.2,92-40.4,145.3c-36.1,34.6-68.9,7-106.3-7.1
		C1358.4,1334.7,1400.6,1273.1,1484.5,1271.3z"/>
</g>
<linearGradient id="SVGID_23_" gradientUnits="userSpaceOnUse" x1="1708.7699" y1="997.095" x2="671.5385" y2="1539.335">
	<stop  offset="5.434346e-07" style="stop-color:#5105A3"/>
	<stop  offset="0.251" style="stop-color:#4E069F"/>
	<stop  offset="0.5041" style="stop-color:#430993"/>
	<stop  offset="0.7572" style="stop-color:#320E7F"/>
	<stop  offset="1" style="stop-color:#1B1464"/>
</linearGradient>
<path class="st26" d="M1410.7,1440.4c-10.9,21.7-33.3,35.5-57.8,35.5H669.6c-59.9,0,10.5-249.1,90.7-284h360
	c0,0-40.6,55.6-52.1,167.3c-1.6,15.2,10.4,28.5,25.9,28.5h162.3c15.4,0,29.7-8.2,37.4-21.4l85.3-146.5c8.6-14.8,11.5-32.2,8.2-49
	c-2.1-10.2-40.8-206.5-41.6-210.4h65.8c18.7,72.3,71.4,276,73.2,305.9C1485.7,1288.1,1437.8,1386.6,1410.7,1440.4z"/>
<linearGradient id="SVGID_24_" gradientUnits="userSpaceOnUse" x1="1480.1461" y1="937.5317" x2="1079.3892" y2="1147.038">
	<stop  offset="0" style="stop-color:#6DDDD0"/>
	<stop  offset="1" style="stop-color:#0068B9"/>
</linearGradient>
<path class="st27" d="M1420.2,993.5c-45.8-1.3-70.2-12.1-70.2-12.1l39.2-20.9h22.5C1411.6,960.5,1414.9,973.2,1420.2,993.5z"/>
<linearGradient id="SVGID_25_" gradientUnits="userSpaceOnUse" x1="1619.285" y1="822.5696" x2="578.0634" y2="1366.8956">
	<stop  offset="0" style="stop-color:#5105A3"/>
	<stop  offset="1" style="stop-color:#7F47DD"/>
</linearGradient>
<path class="st28" d="M1480.1,974.6c-27.1,6-182.2,15.8-179.8-2.3c2.1-18.1,11.6-47.4,17.7-64.7c6.5-18.3,25.4-15.9,42.5-17.5
	c6,7,35.5,36.8,102.1,36.6C1468.9,940.6,1494,970.9,1480.1,974.6z"/>
<g>
	<linearGradient id="SVGID_26_" gradientUnits="userSpaceOnUse" x1="1067.9678" y1="1257.799" x2="808.1862" y2="1514.5596">
		<stop  offset="0" style="stop-color:#B3B3B3"/>
		<stop  offset="1" style="stop-color:#4D4D4D"/>
	</linearGradient>
	<path class="st29" d="M967.2,1502.4c-3.3,191.3-290.4,191.3-293.6,0C676.9,1311.2,964,1311.2,967.2,1502.4z"/>
	<linearGradient id="SVGID_27_" gradientUnits="userSpaceOnUse" x1="913.9691" y1="1410.0426" x2="769.3852" y2="1552.9451">
		<stop  offset="0" style="stop-color:#B3B3B3"/>
		<stop  offset="1" style="stop-color:#4D4D4D"/>
	</linearGradient>
	<path class="st30" d="M936.4,1591.8c-140.4,164.5-372.5-63.6-206-204.2C625.7,1522.1,802.3,1695,936.4,1591.8z"/>
</g>
<linearGradient id="SVGID_28_" gradientUnits="userSpaceOnUse" x1="1199.3309" y1="1269.2947" x2="539.4361" y2="1507.5898">
	<stop  offset="0" style="stop-color:#6DDDD0"/>
	<stop  offset="1" style="stop-color:#0068B9"/>
</linearGradient>
<path class="st31" d="M1048.6,1475.9h-379c-43.6,3.3-11.2-114.1,2.5-160.9c132.5-90.6,336.4-19.5,383.5,130.7
	C1059.6,1456.9,1056.2,1468.4,1048.6,1475.9z"/>
<linearGradient id="SVGID_29_" gradientUnits="userSpaceOnUse" x1="1170.5046" y1="1288.7748" x2="518.4589" y2="1524.2356">
	<stop  offset="0" style="stop-color:#5105A3"/>
	<stop  offset="0.3915" style="stop-color:#4F06A1"/>
	<stop  offset="0.5957" style="stop-color:#480799"/>
	<stop  offset="0.7567" style="stop-color:#3D0B8B"/>
	<stop  offset="0.8943" style="stop-color:#2D0F79"/>
	<stop  offset="1" style="stop-color:#1B1464"/>
</linearGradient>
<path class="st32" d="M997.5,1475.9H643.4c-82.3-16.9,68.6-186.7,177.1-171.8C928.4,1289.1,1080,1458.8,997.5,1475.9z"/>
<linearGradient id="SVGID_30_" gradientUnits="userSpaceOnUse" x1="1618.0178" y1="823.1736" x2="580.9363" y2="1365.3352">
	<stop  offset="0" style="stop-color:#6DDDD0"/>
	<stop  offset="1" style="stop-color:#0068B9"/>
</linearGradient>
<path class="st33" d="M1480.1,974.6c-27.1,6-182.2,15.8-179.8-2.3c4.4-19.4,11.4-67.1,28.9-77.8c-2.8,10.1-30.7,76-12.6,75.9
	c26.7,1.2,122.3,4.6,167.6-4.2C1485.8,969.7,1483.9,973.7,1480.1,974.6z"/>
<linearGradient id="SVGID_31_" gradientUnits="userSpaceOnUse" x1="1253.4119" y1="1138.0453" x2="1248.8235" y2="1130.73">
	<stop  offset="0" style="stop-color:#E7659D"/>
	<stop  offset="1" style="stop-color:#6300B9"/>
</linearGradient>
<path class="st34" d="M1249.5,1135.1c0.1-2,0.1-4-0.1-6l0.3-0.3C1249.7,1130.9,1249.6,1133,1249.5,1135.1z"/>
<g>
	<linearGradient id="SVGID_32_" gradientUnits="userSpaceOnUse" x1="1136.1233" y1="1333.3842" x2="1104.5946" y2="974.955">
		<stop  offset="5.434346e-07" style="stop-color:#5105A3"/>
		<stop  offset="0.251" style="stop-color:#4E069F"/>
		<stop  offset="0.5041" style="stop-color:#430993"/>
		<stop  offset="0.7572" style="stop-color:#320E7F"/>
		<stop  offset="1" style="stop-color:#1B1464"/>
	</linearGradient>
	<path class="st35" d="M1223.4,1168.7c1.8-4.8-13.6-7.2-30.8-8.5c-43.8-2.6-53.8-1-89.3,1.5c-129.3,8.3-165.7-5.8-124-128.4
		l49.8-27.7l7.5,9.7l2.9-2.8c7.3,4.9,47.9,32.4,56,38c25.2-0.9,102.1,4.8,137.6,16.9c1.2,0.7,36.8,21.1,38.9,61.8l-49.4,41.9
		C1223.1,1169.5,1223.4,1168.7,1223.4,1168.7z"/>
	<linearGradient id="SVGID_33_" gradientUnits="userSpaceOnUse" x1="1247.8679" y1="1323.4319" x2="1216.3654" y2="965.2999">
		<stop  offset="5.434346e-07" style="stop-color:#5105A3"/>
		<stop  offset="0.251" style="stop-color:#4E069F"/>
		<stop  offset="0.5041" style="stop-color:#430993"/>
		<stop  offset="0.7572" style="stop-color:#320E7F"/>
		<stop  offset="1" style="stop-color:#1B1464"/>
	</linearGradient>
	<path class="st36" d="M1272.3,1128.9c-2.6,82.3-22.5,209-22.3,206.5c-20.2,6.8-37.8,5.1-37.8,5.1c4.7-80.1-34.1-161.4-14.5-240.1
		c0,0,18.1-16.9,35.4-33.1c1.2,0.7,36.8,21.1,38.9,61.8L1272.3,1128.9z"/>
	
		<linearGradient id="SVGID_34_" gradientUnits="userSpaceOnUse" x1="5012.1738" y1="1309.4102" x2="4973.1938" y2="1380.3739" gradientTransform="matrix(1 0 0 1 -3715.355 0)">
		<stop  offset="5.434346e-07" style="stop-color:#5105A3"/>
		<stop  offset="0.251" style="stop-color:#4E069F"/>
		<stop  offset="0.5041" style="stop-color:#430993"/>
		<stop  offset="0.7572" style="stop-color:#320E7F"/>
		<stop  offset="1" style="stop-color:#1B1464"/>
	</linearGradient>
	<path class="st37" d="M1212.8,1339c0,0,19.2,3.1,37.1-3.6c28.3,33.5,72.2,11.8,77.1,42.4c0,0-57,22.1-119,9.8
		C1208.1,1387.5,1203,1360.6,1212.8,1339z"/>
</g>
<path class="st15" d="M1140.2,884.9c-2.2,37.6-22.1,129.8-28.9,154.6c-61.7,15.1-132-6.3-132-6.3c35.1-123.7-33.8-214.5,78.2-277.6
	l60.4,25.1c0,0,12.9,12.8,21.9,62.6C1141.8,853.8,1141.6,868.3,1140.2,884.9z"/>
<g>
	
		<linearGradient id="SVGID_35_" gradientUnits="userSpaceOnUse" x1="1186.0212" y1="650.8074" x2="1190.266" y2="733.1561" gradientTransform="matrix(0.9926 0.1217 -0.1094 0.8918 -5.7215 -84.8098)">
		<stop  offset="0" style="stop-color:#F0877E"/>
		<stop  offset="1" style="stop-color:#FABEB2"/>
	</linearGradient>
	<path class="st38" d="M1047.4,642.5c0,0-11.3,43.9,0.9,61.5c11.5,16.5,33.8,31.5,68.8,37.2c4.3,0.7,8.7-0.8,11.1-3.8
		c3.4-4.3,7.9-11.7,10.9-23.3c0.6-2.4,2.4-3,4.9-3.3c17.5-5.3-0.1-26.3,1-37.8c1-5.8,3-16,5.9-22
		C1155.2,642.3,1080.3,608.5,1047.4,642.5z"/>
	<linearGradient id="SVGID_36_" gradientUnits="userSpaceOnUse" x1="1067.6434" y1="694.3742" x2="1124.7303" y2="593.1746">
		<stop  offset="0" style="stop-color:#5C1A00"/>
		<stop  offset="1" style="stop-color:#B94300"/>
	</linearGradient>
	<path class="st39" d="M1069.5,690.3c1.6-0.7,3.5,0.2,3.8,1.9c5.3,25.4,12.7,5.1,12-7.4c2.1-21.5,22.6-29.8,41.9-34
		c8.9,1.7-8.2,12.8-1.9,13.2c42.5-4.1,46.1-44.8,1.2-50.4c-28.3-6.8-58.1-4.3-82.1,12.2c-20.4,26.9,7,114.5,11.9,92.1
		C1056.7,716,1057.5,695.7,1069.5,690.3z"/>
	<g>
		<linearGradient id="SVGID_37_" gradientUnits="userSpaceOnUse" x1="1064.1641" y1="665.4191" x2="1065.3588" y2="688.5967">
			<stop  offset="0" style="stop-color:#F0877E"/>
			<stop  offset="1" style="stop-color:#FABEB2"/>
		</linearGradient>
		<path class="st40" d="M1072.8,672.3c-0.2-6.1-11.8-15.9-15.4-6.6c-4.1,10.7,4.1,28.6,15.4,30.5V672.3z"/>
		<linearGradient id="SVGID_38_" gradientUnits="userSpaceOnUse" x1="1065.3525" y1="669.5526" x2="1066.1151" y2="684.3459">
			<stop  offset="0" style="stop-color:#F0877E"/>
			<stop  offset="1" style="stop-color:#FABEB2"/>
		</linearGradient>
		<path class="st41" d="M1070.7,672.1c-14.7-16.9-12.9,16.1,0,17.1V672.1z"/>
	</g>
</g>
<linearGradient id="SVGID_39_" gradientUnits="userSpaceOnUse" x1="1031.9491" y1="609.9605" x2="1204.3135" y2="609.9605">
	<stop  offset="6.819570e-07" style="stop-color:#5105A3"/>
	<stop  offset="1" style="stop-color:#7F47DD"/>
</linearGradient>
<path class="st42" d="M1087,565.4c-33.7,2.3-50.5,32.9-54.9,67.6c-0.8,6,1.8,12.1,6.5,14.8c14.6,8.5,36.9,1.1,52.5,0.2
	c19.3-1.1,38.7-0.5,58,1.6c8.3-0.8,74,15.4,50-6c-11.9-11-26.7-13.2-40.9-17.8c-6.8-5.6-8.1-19-12-27.1
	C1134.6,574.7,1110.3,563.5,1087,565.4z"/>
<linearGradient id="SVGID_40_" gradientUnits="userSpaceOnUse" x1="956.5377" y1="934.7647" x2="1354.1888" y2="929.747">
	<stop  offset="0" style="stop-color:#F0877E"/>
	<stop  offset="1" style="stop-color:#FABEB2"/>
</linearGradient>
<path class="st43" d="M1159,907.7c0,0,91.6,7.1,149.7,12.6c6,12.2,7,6.4,3,19.4c-4.3,0.8-8.3,2-11.9,3.3
	c-27.1,7-96.8,22.8-171.6,21.6c1-33.4,7.9-53.6,13.2-64.3C1147.1,903.3,1153,905.8,1159,907.7z"/>
<linearGradient id="SVGID_41_" gradientUnits="userSpaceOnUse" x1="1304.912" y1="920.7167" x2="1319.7062" y2="920.4584">
	<stop  offset="0" style="stop-color:#F0877E"/>
	<stop  offset="1" style="stop-color:#FABEB2"/>
</linearGradient>
<path class="st44" d="M1316.6,921c-2.6-0.2-5.2-0.5-7.9-0.7c0,0,0,0,0-0.1C1308.7,920.2,1312.2,920.5,1316.6,921z"/>
<linearGradient id="SVGID_42_" gradientUnits="userSpaceOnUse" x1="1314.8639" y1="922.1553" x2="1336.5554" y2="921.7764">
	<stop  offset="0" style="stop-color:#F0877E"/>
	<stop  offset="1" style="stop-color:#FABEB2"/>
</linearGradient>
<path class="st45" d="M1331.9,922.6c-0.7-0.1-6.1-0.6-11.6-1.2C1324.5,921.8,1328.3,922.1,1331.9,922.6z"/>
<linearGradient id="SVGID_43_" gradientUnits="userSpaceOnUse" x1="1110.4469" y1="844.7464" x2="1005.9539" y2="1046.9907">
	<stop  offset="0" style="stop-color:#5105A3"/>
	<stop  offset="0.3612" style="stop-color:#4F06A1"/>
	<stop  offset="0.5731" style="stop-color:#480898"/>
	<stop  offset="0.7465" style="stop-color:#3C0B8A"/>
	<stop  offset="0.8981" style="stop-color:#2B1076"/>
	<stop  offset="1" style="stop-color:#1B1464"/>
</linearGradient>
<path class="st46" d="M1011.8,911.8c1,54.7,16.4,126.2,99.5,127.6c-61.7,15.1-132-6.3-132-6.3c16-66.3,13.2-87,10.7-122.5
	c21.8-37.8,17.2-101.1,52.3-101.2c21.5,35.6,66.9,103.4,88,143.6c-1.9,10.3-3.9,20.4-5.9,29.7c-24.9-10.1-75.5-40.6-101.4-74.8
	C1019.3,903.3,1011.7,905.9,1011.8,911.8z"/>
<linearGradient id="SVGID_44_" gradientUnits="userSpaceOnUse" x1="1105.2593" y1="850.8961" x2="1086.0588" y2="888.0582">
	<stop  offset="0" style="stop-color:#E79700"/>
	<stop  offset="1" style="stop-color:#E74700"/>
</linearGradient>
<path class="st47" d="M1140.2,884.9c-0.6,7.4-1.5,15.3-2.6,23.4c-4.3,1.6-7.3,2.7-7.3,2.7l-73.9-85.3
	C1058.3,827.6,1103,873.9,1140.2,884.9z"/>
<linearGradient id="SVGID_45_" gradientUnits="userSpaceOnUse" x1="956.6235" y1="943.1473" x2="1354.2958" y2="938.1294">
	<stop  offset="0" style="stop-color:#F0877E"/>
	<stop  offset="1" style="stop-color:#FABEB2"/>
</linearGradient>
<path class="st48" d="M1328.2,913.9c0,0,32-0.1,43.8-1.2c11.8-1.1,19,30.9,19.2,32.5c0.3,1.6-11.3,6.2-12.8,6.4
	c-1.5,0.2,5.4,3.6,2.6,7c-12.2,12.2-18-4.2-28.8-5.2c-13.6,4.8-29.6-17.3-40.6-13.7l-3-19.5L1328.2,913.9z"/>
<linearGradient id="SVGID_46_" gradientUnits="userSpaceOnUse" x1="1647.7712" y1="-112.6862" x2="1665.397" y2="-139.6985" gradientTransform="matrix(0.1524 0.9883 -0.9883 0.1524 990.9447 -681.0169)">
	<stop  offset="0" style="stop-color:#F0877E"/>
	<stop  offset="1" style="stop-color:#FABEB2"/>
</linearGradient>
<path class="st49" d="M1381.9,943.9c0,0-7.9,4.2-9.3,3.5c-1.4-0.7-6.8-15-7-15.9C1365.5,930.5,1376.4,925.2,1381.9,943.9z"/>
<linearGradient id="SVGID_47_" gradientUnits="userSpaceOnUse" x1="1383.4913" y1="920.7706" x2="1356.5707" y2="952.7969">
	<stop  offset="0" style="stop-color:#6DDDD0"/>
	<stop  offset="1" style="stop-color:#0068B9"/>
</linearGradient>
<path class="st50" d="M1379.8,937.9c0.2,13.7-21.6,13.7-21.4,0C1358.2,924.2,1380,924.2,1379.8,937.9z"/>
<linearGradient id="SVGID_48_" gradientUnits="userSpaceOnUse" x1="981.1364" y1="993.5524" x2="1069.2646" y2="666.8325">
	<stop  offset="0" style="stop-color:#5C1A00"/>
	<stop  offset="1" style="stop-color:#B94300"/>
</linearGradient>
<path class="st51" d="M963.2,755.6c164.2,22,193.3,223.7-28.9,245v-20.5c152.6,11.8,216.8-176,21.7-208.2L963.2,755.6z"/>
<path class="st15" d="M1042.3,809.5c-29.6,3.8-35.3,55.9-11.2,88.4c22,33.7,63.8,47,97,66.7c1-33.4,7.9-53.6,13.2-64.3
	C1104.9,881.5,1071.2,842.9,1042.3,809.5z"/>
<linearGradient id="SVGID_49_" gradientUnits="userSpaceOnUse" x1="579.3267" y1="868.2681" x2="1023.4525" y2="868.2681">
	<stop  offset="6.766293e-07" style="stop-color:#5105A3"/>
	<stop  offset="1" style="stop-color:#1B1464"/>
</linearGradient>
<path class="st52" d="M1023.4,695.6l-39.1,385.6c-0.8,8.2-8.2,14.1-16.4,13.3l-375.1-37.3c-8.2-0.8-14.2-8.1-13.4-16.3l39.1-385.6
	c0.8-8.2,8.2-14.1,16.4-13.3L774,655.9l236,23.5C1018.2,680.2,1024.2,687.5,1023.4,695.6z"/>
<linearGradient id="SVGID_50_" gradientUnits="userSpaceOnUse" x1="851.7847" y1="708.7514" x2="727.3739" y2="1100.2799">
	<stop  offset="1.331947e-07" style="stop-color:#000000"/>
	<stop  offset="1" style="stop-color:#5105A3"/>
</linearGradient>
<path class="st53" d="M985.9,1065.8c-0.9,11.6-1.2,30.4-18,28.7c0,0-375.1-37.3-375.1-37.3c-8.2-0.8-14.2-8.1-13.4-16.3l39.1-385.6
	c1.3-13.4,15.8-14.7,26.4-12.3l-37.5,370.1c-0.8,8.2,5.2,15.5,13.4,16.3L985.9,1065.8z"/>
<linearGradient id="SVGID_51_" gradientUnits="userSpaceOnUse" x1="581.2814" y1="769.5314" x2="1159.7607" y2="525.3684">
	<stop  offset="2.290557e-02" style="stop-color:#070C4C"/>
	<stop  offset="1" style="stop-color:#5105A3"/>
</linearGradient>
<path class="st54" d="M1022.4,705.7c0,0-278.4-26.5-373.6-35.6c-17.3-1.6-32.8,10.6-35,27.7c-6.9,32.1-2.8,80.9-23.6,108.5
	c-24.5,17.7-14.7-27.3-11-39.4c14.8-62.1-15.9-148,95.7-145.9c110.2,7.1,221.3,17.4,330.1,33.9C1015,658.5,1026,669.5,1022.4,705.7z
	"/>
<path class="st55" d="M820.9,748.7l-83.5,96.8c-1.2,1.4-0.3,3.5,1.5,3.7l62.7,6.4c1.6,0.2,2.5,1.9,1.7,3.3L741,970.3
	c-1.9,16.2,155.9-135.6,157.6-133c9.5-9.6-98.2-6.2-92.9-14.2C803.3,824.9,833,737.2,820.9,748.7z"/>
<linearGradient id="SVGID_52_" gradientUnits="userSpaceOnUse" x1="1522.4" y1="641.941" x2="1730.3073" y2="641.941">
	<stop  offset="2.663895e-07" style="stop-color:#5105A3"/>
	<stop  offset="1" style="stop-color:#7F47DD"/>
</linearGradient>
<path class="st56" d="M1730.3,641.9c-2.3,135.5-205.6,135.4-207.9,0C1524.7,506.5,1728,506.5,1730.3,641.9z"/>
</svg>
